<?xml version="1.0" standalone="no"?>
<!DOCTYPE svg PUBLIC "-//W3C//DTD SVG 20010904//EN"
 "http://www.w3.org/TR/2001/REC-SVG-20010904/DTD/svg10.dtd">
<svg version="1.0" xmlns="http://www.w3.org/2000/svg"
 width="300.000000pt" height="300.000000pt" viewBox="0 0 300.000000 300.000000"
 preserveAspectRatio="xMidYMid meet">
<metadata>
Created by potrace 1.10, written by Peter Selinger 2001-2011
</metadata>
<g transform="translate(0.000000,300.000000) scale(0.100000,-0.100000)"
fill="#000000" stroke="none">
<path d="M1243 2588 c-28 -31 -43 -62 -43 -88 0 -21 -2 -20 -36 10 -25 21 -44
30 -62 28 -38 -4 -41 -35 -6 -63 l28 -22 -36 -7 c-37 -7 -88 -49 -88 -73 0
-21 24 -25 56 -8 44 23 46 19 13 -32 -16 -27 -35 -67 -40 -90 -10 -39 -13 -41
-34 -31 -38 17 -90 1 -124 -38 -26 -29 -31 -43 -31 -85 0 -87 43 -147 117
-163 23 -5 33 -14 38 -34 15 -60 116 -185 130 -162 7 12 45 -6 45 -20 0 -17
-34 -10 -75 15 -22 14 -50 25 -62 25 -13 0 -23 6 -23 13 0 19 -33 47 -55 47
-10 0 -27 -9 -39 -20 -12 -11 -33 -31 -48 -44 -37 -34 -37 -76 1 -118 23 -26
36 -32 70 -32 25 -1 41 -6 41 -13 0 -24 47 -42 145 -54 55 -7 101 -13 103 -15
7 -4 -47 -100 -76 -137 -17 -21 -28 -45 -25 -53 3 -8 -5 -23 -20 -34 -54 -43
-61 -132 -14 -193 18 -25 23 -41 19 -70 -9 -77 47 -91 110 -27 37 37 40 43 34
80 -5 31 -2 44 13 59 39 39 156 34 228 -10 42 -26 73 -78 73 -122 0 -20 6 -39
13 -44 7 -4 -15 -12 -53 -18 -69 -11 -84 -26 -35 -36 39 -9 261 -9 300 0 47
10 35 25 -27 35 -51 8 -58 12 -58 32 0 13 -4 25 -9 29 -6 3 -2 23 9 48 22 47
25 102 9 144 -12 31 -15 52 -25 198 l-6 100 103 3 c114 4 144 12 153 40 5 14
13 17 36 14 63 -9 120 39 120 101 0 25 -33 67 -53 67 -7 0 -17 10 -22 23 -6
12 -20 23 -33 25 -25 4 -62 -22 -62 -43 0 -7 -17 -15 -37 -18 -21 -3 -47 -8
-58 -12 -13 -5 -7 4 16 26 20 19 48 53 64 77 24 37 32 42 65 42 75 0 150 79
150 157 0 77 -48 133 -113 133 -21 0 -25 6 -30 45 -22 161 -168 300 -367 351
-78 20 -231 15 -300 -9 -24 -9 -46 -14 -49 -12 -2 3 7 21 22 41 14 20 23 43
20 50 -8 21 -47 17 -70 -8z m24 -113 c2 -6 -11 -16 -29 -24 -17 -8 -49 -30
-70 -49 -36 -32 -40 -34 -55 -19 -15 15 -14 19 14 50 22 25 34 32 46 26 10 -6
23 -2 38 11 25 20 50 23 56 5z m375 -21 c107 -32 197 -102 248 -193 13 -22 27
-38 31 -36 4 3 9 -2 13 -10 3 -8 2 -15 -2 -15 -15 0 -106 82 -140 125 -43 56
-67 60 -59 10 4 -26 2 -35 -8 -35 -32 0 -72 23 -105 60 -26 29 -39 37 -50 30
-12 -8 -11 -15 8 -54 18 -38 19 -46 7 -46 -22 0 -103 84 -111 114 -4 16 -13
26 -24 26 -28 0 -31 -13 -15 -66 8 -27 15 -50 15 -51 0 -2 -9 -3 -20 -3 -28 0
-87 57 -105 102 l-15 37 38 10 c90 24 203 22 294 -5z m-362 -32 c0 -10 -18
-27 -46 -41 -25 -14 -71 -53 -102 -89 -31 -35 -58 -59 -60 -54 -4 14 16 52 27
49 4 -1 23 18 42 43 28 36 118 110 135 110 2 0 4 -8 4 -18z m51 -97 c26 -28
57 -49 82 -57 37 -11 41 -10 59 11 17 22 20 23 36 8 10 -9 35 -23 55 -32 39
-16 69 -10 81 17 4 9 10 6 22 -9 9 -13 25 -23 36 -23 11 0 28 -5 38 -10 20
-11 39 4 20 15 -8 5 -8 11 0 20 9 11 20 5 54 -28 24 -23 60 -51 80 -62 l38
-20 -7 -62 c-4 -35 -3 -63 2 -63 5 0 26 9 46 19 21 10 46 17 58 14 50 -13 49
-95 -2 -137 -35 -30 -44 -31 -83 -11 -15 8 -30 15 -32 15 -2 0 -17 -26 -33
-58 -38 -75 -123 -153 -199 -184 -49 -19 -75 -23 -182 -23 -105 0 -136 4 -191
23 -132 45 -226 135 -256 243 l-16 59 -41 0 c-46 0 -55 5 -79 40 -21 31 -22
69 -1 98 21 30 61 28 95 -4 15 -14 32 -23 38 -19 6 3 22 27 35 53 30 59 96
135 156 178 25 19 46 34 47 34 2 0 21 -20 44 -45z m-355 -586 c23 -46 12 -99
-21 -99 -30 0 -68 35 -63 58 3 12 13 17 36 15 32 -1 33 0 27 28 -9 38 0 37 21
-2z m1009 -40 c-6 -28 -5 -30 14 -24 22 7 51 -9 51 -26 0 -19 -42 -49 -69 -49
-25 0 -29 4 -33 35 -2 19 -1 35 2 35 3 0 11 14 17 30 15 39 26 39 18 -1z
m-897 -10 c28 -10 30 -13 25 -47 -8 -57 -9 -59 -47 -54 -33 4 -36 7 -36 36 0
38 10 76 20 76 4 0 21 -5 38 -11z m720 -7 c2 -8 -9 -12 -35 -12 -38 1 -38 1
-13 15 28 16 42 15 48 -3z m-536 -49 c74 -21 98 -32 98 -45 0 -24 48 -58 82
-58 20 0 39 10 58 30 20 22 43 33 82 40 29 6 67 14 83 19 17 5 51 12 78 16
l47 6 0 -44 0 -43 -61 -12 c-67 -12 -89 -25 -89 -53 0 -10 -3 -20 -7 -22 -9
-5 -139 6 -275 24 l-98 12 -1 46 c0 41 -2 44 -12 23 -8 -17 -16 -22 -31 -17
-12 4 -39 11 -62 16 -38 9 -40 12 -36 42 6 50 11 59 29 54 10 -3 62 -18 115
-34z m626 -20 l-3 -57 -37 -4 -37 -3 -3 48 c-3 47 -2 48 32 59 19 7 39 12 43
13 4 1 7 -25 5 -56z m-418 -22 c0 -16 -20 -23 -46 -17 -36 9 -29 26 11 26 19
0 35 -4 35 -9z m-79 -126 c68 -8 149 -15 181 -15 l58 0 0 -38 c0 -21 -2 -41
-5 -43 -6 -7 -150 7 -283 27 -89 14 -112 20 -107 32 3 7 8 25 11 38 3 13 9 22
14 19 4 -2 63 -11 131 -20z m-19 -95 c73 -11 161 -20 194 -20 l61 0 6 -37 c4
-20 4 -39 2 -41 -5 -5 -161 18 -332 49 l-122 22 21 28 c12 16 25 26 29 23 5
-3 68 -14 141 -24z m-14 -110 c84 -16 181 -32 216 -36 72 -7 86 -23 86 -93 0
-40 -17 -101 -28 -101 -15 0 -30 16 -37 40 -30 102 -168 168 -292 140 -55 -12
-103 -54 -103 -90 0 -11 -10 -20 -27 -25 -32 -8 -47 9 -65 67 -9 31 -8 41 6
63 15 22 71 65 86 65 3 0 74 -14 158 -30z m-157 -208 c-13 -24 -50 -56 -57
-50 -10 11 8 57 24 61 36 10 43 8 33 -11z m455 -74 c9 -30 -4 -34 -31 -8 -32
30 -32 38 0 33 13 -3 27 -14 31 -25z"/>
<path d="M1223 2303 c-7 -2 -13 -12 -13 -20 0 -11 6 -14 23 -9 12 3 34 6 49 6
20 0 26 4 22 15 -6 15 -54 20 -81 8z"/>
<path d="M1215 2235 c-132 -46 -131 -232 2 -276 105 -34 213 70 183 179 -21
79 -107 124 -185 97z m106 -38 c58 -39 75 -102 42 -158 -19 -32 -68 -59 -106
-59 -40 0 -90 41 -106 86 -13 37 -12 44 5 80 20 40 70 74 110 74 12 0 36 -10
55 -23z"/>
<path d="M1235 2155 c-45 -44 -22 -115 41 -131 68 -17 115 90 58 135 -35 28
-69 27 -99 -4z m55 -21 c0 -19 -28 -30 -42 -16 -8 8 -8 15 1 26 14 17 41 10
41 -10z"/>
<path d="M1605 2205 c-74 -26 -125 -112 -111 -188 29 -157 244 -189 316 -47
49 97 -1 210 -108 240 -46 12 -48 12 -97 -5z m105 -31 c142 -57 102 -264 -51
-264 -155 0 -190 213 -44 265 51 18 47 18 95 -1z"/>
<path d="M1575 2115 c-36 -35 -35 -96 1 -124 57 -45 138 -8 138 64 0 74 -88
112 -139 60z m53 -28 c4 -20 -25 -34 -40 -19 -15 15 -1 44 19 40 10 -2 19 -11
21 -21z m42 -36 c0 -16 -31 -42 -41 -35 -6 4 -3 14 7 25 18 20 34 25 34 10z"/>
<path d="M940 2114 c0 -4 8 -13 18 -20 16 -12 16 -13 0 -19 -10 -4 -18 -13
-18 -21 0 -16 16 -19 25 -4 10 17 25 11 25 -10 0 -12 7 -20 16 -20 22 0 10 46
-18 78 -20 21 -48 30 -48 16z"/>
<path d="M1969 2001 c-29 -29 -39 -61 -19 -61 6 0 10 3 10 8 0 4 4 14 10 22 7
12 12 12 29 -4 18 -17 21 -17 21 -3 0 9 -7 20 -17 25 -14 9 -14 10 5 16 25 8
29 26 6 26 -8 0 -29 -13 -45 -29z"/>
<path d="M1396 1974 c-18 -17 -21 -34 -7 -34 5 0 14 7 21 15 18 22 29 19 40
-11 10 -25 30 -25 30 0 0 17 -33 46 -53 46 -8 0 -23 -7 -31 -16z"/>
<path d="M1163 1927 c-4 -9 -24 -17 -43 -19 l-35 -4 28 -8 c23 -7 33 -4 50 12
11 12 18 24 15 27 -3 4 -10 0 -15 -8z"/>
<path d="M1220 1910 c-24 -24 -25 -48 -5 -97 22 -52 42 -72 100 -99 90 -42
202 -27 256 34 24 27 29 40 24 61 -9 38 -27 47 -107 55 -49 4 -94 16 -137 36
-74 35 -104 37 -131 10z m130 -34 c37 -19 75 -30 117 -34 52 -4 61 -7 52 -18
-14 -17 -88 -18 -141 -2 -41 12 -98 57 -98 78 0 13 -3 14 70 -24z m-13 -108
c20 -18 34 -27 29 -20 -11 18 20 15 49 -4 34 -22 31 -34 -7 -34 -36 0 -112 31
-140 57 -49 45 18 45 69 1z m206 12 c-7 -25 -37 -42 -66 -38 -26 4 -21 21 8
26 11 1 29 9 40 17 11 8 21 14 22 14 0 1 -1 -8 -4 -19z"/>
<path d="M1166 1229 c-27 -32 -29 -42 -17 -74 7 -17 9 -14 15 15 3 19 13 47
20 63 19 35 14 34 -18 -4z"/>
<path d="M1389 866 c-19 -9 -24 -19 -24 -51 0 -34 4 -41 28 -49 48 -17 89 23
72 70 -12 33 -44 46 -76 30z m58 -32 c9 -24 -10 -49 -38 -49 -24 0 -36 23 -25
51 7 19 55 18 63 -2z"/>
<path d="M1550 852 c-20 -16 -24 -35 -38 -174 -8 -86 -12 -163 -9 -172 4 -11
18 -16 42 -16 42 0 55 23 55 101 0 58 11 63 29 14 8 -23 21 -37 37 -41 36 -9
53 1 74 48 l18 42 7 -40 c18 -120 18 -119 51 -122 38 -4 66 20 59 51 -3 12
-14 83 -25 157 -23 153 -38 182 -86 165 -20 -8 -33 -26 -54 -79 l-27 -70 -28
63 c-25 54 -55 91 -76 91 -4 0 -17 -8 -29 -18z m248 -15 c11 -13 52 -252 52
-301 0 -21 -5 -26 -24 -26 -26 0 -23 -8 -47 134 l-12 70 -34 -68 c-24 -48 -39
-66 -51 -64 -9 2 -33 32 -52 68 l-34 65 -8 -70 c-14 -127 -16 -135 -43 -135
-19 0 -25 5 -25 23 1 45 29 287 35 297 3 5 15 10 25 10 15 0 31 -22 60 -80 22
-44 42 -80 44 -80 2 0 19 35 36 78 38 91 55 108 78 79z"/>
<path d="M1054 849 c-8 -13 -6 -323 3 -345 7 -18 45 -28 72 -19 18 5 21 14 21
63 l0 56 58 -57 c32 -31 65 -57 74 -57 9 0 26 12 37 26 25 32 21 43 -54 113
l-57 54 51 51 c54 55 62 83 33 109 -28 26 -42 21 -94 -30 -48 -47 -48 -47 -48
-19 0 46 -17 66 -55 66 -18 0 -37 -5 -41 -11z m70 -31 c3 -13 6 -41 6 -63 l0
-39 64 63 c56 55 67 62 80 51 25 -20 20 -32 -39 -90 l-55 -54 65 -66 c66 -66
78 -93 49 -104 -10 -4 -39 16 -87 59 l-72 66 -5 -68 c-4 -56 -8 -68 -24 -71
-10 -2 -22 2 -27 10 -5 7 -9 84 -9 171 l0 157 24 0 c16 0 26 -7 30 -22z"/>
<path d="M1389 740 c-13 -7 -18 -34 -23 -114 -9 -129 -2 -149 52 -144 l37 3 3
120 c2 104 0 121 -15 132 -20 15 -32 16 -54 3z m49 -128 l3 -113 -28 3 -28 3
4 105 c2 58 5 109 8 113 3 4 12 7 21 5 14 -3 17 -20 20 -116z"/>
</g>
</svg>
